<svg viewBox="0 0 24 24" fill="none" xmlns="http://www.w3.org/2000/svg">
<circle cx="12" cy="12" r="10" fill="white"/>
<path d="M15.597 17.0459L17.4018 8.53814C17.5613 7.78936 17.1315 7.49471 16.6404 7.67857L6.03329 11.7666C5.30884 12.0487 5.32143 12.4541 5.91071 12.638L8.6238 13.485L14.9221 9.5195C15.2167 9.32307 15.487 9.43386 15.2662 9.63029L10.1716 14.2338L9.97521 17.0333C10.2573 17.0333 10.3806 16.9107 10.5276 16.763L11.8531 15.4862L14.6031 17.5118C15.1067 17.7939 15.4627 17.6469 15.5978 17.0451L15.597 17.0459ZM23 12C23 18.0767 18.0767 23 12 23C5.9233 23 1 18.0767 1 12C1 5.9233 5.9233 1 12 1C18.0767 1 23 5.9233 23 12Z" fill="#1296DB"/>
</svg>
